<svg width="21" height="20" viewBox="0 0 21 20" fill="none" xmlns="http://www.w3.org/2000/svg">
<path d="M10.7626 0.272217C5.25357 0.272217 0.788574 4.73722 0.788574 10.2462C0.788574 14.6522 3.64557 18.3912 7.60957 19.7112C8.10857 19.8012 8.28857 19.4942 8.28857 19.2302C8.28857 18.9932 8.28057 18.3652 8.27757 17.5342C5.50257 18.1362 4.91657 16.1962 4.91657 16.1962C4.46457 15.0442 3.80957 14.7372 3.80957 14.7372C2.90457 14.1182 3.87857 14.1322 3.87857 14.1322C4.88057 14.2022 5.40557 15.1602 5.40557 15.1602C6.29557 16.6842 7.74157 16.2442 8.30757 15.9892C8.39857 15.3442 8.65857 14.9042 8.94257 14.6552C6.72857 14.4042 4.40057 13.5482 4.40057 9.72522C4.40057 8.63822 4.78957 7.74622 5.42457 7.05022C5.32357 6.79722 4.97857 5.78222 5.52357 4.41022C5.52357 4.41022 6.36057 4.14122 8.26557 5.43122C9.06357 5.21022 9.91457 5.09922 10.7616 5.09522C11.6106 5.09922 12.4626 5.21022 13.2576 5.43122C15.1636 4.14022 15.9996 4.41022 15.9996 4.41022C16.5446 5.78222 16.2026 6.79722 16.0986 7.05022C16.7386 7.74622 17.1226 8.63722 17.1226 9.72522C17.1226 13.5582 14.7926 14.4002 12.5706 14.6472C12.9256 14.9552 13.2456 15.5632 13.2456 16.4932C13.2456 17.8272 13.2336 18.9032 13.2336 19.2302C13.2336 19.4972 13.4116 19.8072 13.9206 19.7092C17.8826 18.3872 20.7366 14.6512 20.7366 10.2462C20.7366 4.73722 16.2716 0.272217 10.7626 0.272217Z" fill="#272727"/>
</svg>
