<svg width="19" height="18" viewBox="0 0 19 18" fill="none" xmlns="http://www.w3.org/2000/svg">
<path d="M17.9976 7.37504H9.67057V10.826H14.4626C14.0166 13.019 12.1496 14.279 9.67057 14.279C6.74757 14.279 4.39157 11.923 4.39157 8.99904C4.39157 6.07604 6.74757 3.72004 9.67057 3.72004C10.9296 3.72004 12.0676 4.16704 12.9606 4.89804L15.5606 2.29904C13.9766 0.91804 11.9456 0.06604 9.67057 0.06604C4.71657 0.06604 0.736572 4.04504 0.736572 9.00004C0.736572 13.955 4.71557 17.934 9.67057 17.934C14.1376 17.934 18.1996 14.685 18.1996 9.00004C18.1996 8.47204 18.1186 7.90304 17.9976 7.37504Z" fill="#DB4437"/>
</svg>
