<svg width="20" height="16" viewBox="0 0 20 16" fill="none" xmlns="http://www.w3.org/2000/svg">
<path d="M17.7695 3.99704C17.7825 4.17204 17.7825 4.34604 17.7825 4.52004C17.7825 9.84504 13.7295 15.981 6.32247 15.981C4.04047 15.981 1.92047 15.32 0.136475 14.172C0.460475 14.209 0.772475 14.222 1.10947 14.222C2.99247 14.222 4.72547 13.586 6.11047 12.501C4.33947 12.464 2.85547 11.304 2.34347 9.70804C2.59247 9.74504 2.84247 9.77004 3.10447 9.77004C3.46547 9.77004 3.82847 9.72004 4.16547 9.63304C2.31847 9.25904 0.935475 7.63804 0.935475 5.68004V5.63004C1.47247 5.92904 2.09547 6.11604 2.75547 6.14104C1.67047 5.41904 0.959475 4.18404 0.959475 2.78704C0.959475 2.03904 1.15847 1.35304 1.50747 0.755043C3.49047 3.19804 6.47147 4.79504 9.81347 4.97004C9.75147 4.67004 9.71347 4.35904 9.71347 4.04704C9.71347 1.82704 11.5095 0.019043 13.7415 0.019043C14.9015 0.019043 15.9485 0.505043 16.6845 1.29104C17.5945 1.11604 18.4665 0.779043 19.2405 0.318043C18.9415 1.25304 18.3045 2.03904 17.4695 2.53804C18.2805 2.45004 19.0665 2.22604 19.7885 1.91404C19.2405 2.71204 18.5555 3.42304 17.7695 3.99704Z" fill="#1DA1F2"/>
</svg>
